<svg width="26" height="26" viewBox="0 0 26 26" fill="none" xmlns="http://www.w3.org/2000/svg">
<circle cx="13" cy="13" r="13" fill="#1F1E1E"/>
<path d="M19.7099 8.20986C19.617 8.11613 19.5064 8.04174 19.3845 7.99097C19.2627 7.9402 19.132 7.91406 18.9999 7.91406C18.8679 7.91406 18.7372 7.9402 18.6154 7.99097C18.4935 8.04174 18.3829 8.11613 18.29 8.20986L10.84 15.6699L7.70995 12.5299C7.61343 12.4366 7.49949 12.3633 7.37463 12.3141C7.24978 12.2649 7.11645 12.2408 6.98227 12.2431C6.84809 12.2454 6.71568 12.2741 6.5926 12.3276C6.46953 12.3811 6.35819 12.4583 6.26495 12.5549C6.17171 12.6514 6.0984 12.7653 6.04919 12.8902C5.99999 13.015 5.97586 13.1484 5.97818 13.2825C5.9805 13.4167 6.00923 13.5491 6.06272 13.6722C6.11622 13.7953 6.19343 13.9066 6.28995 13.9999L10.13 17.8399C10.2229 17.9336 10.3335 18.008 10.4554 18.0588C10.5772 18.1095 10.7079 18.1357 10.84 18.1357C10.972 18.1357 11.1027 18.1095 11.2245 18.0588C11.3464 18.008 11.457 17.9336 11.55 17.8399L19.7099 9.67986C19.8115 9.58622 19.8925 9.47257 19.9479 9.34607C20.0033 9.21957 20.0319 9.08296 20.0319 8.94486C20.0319 8.80676 20.0033 8.67015 19.9479 8.54365C19.8925 8.41715 19.8115 8.3035 19.7099 8.20986Z" fill="white"/>
</svg>
