<svg width="48" height="48" viewBox="0 0 48 48" fill="none" xmlns="http://www.w3.org/2000/svg">
<path fill-rule="evenodd" clip-rule="evenodd" d="M48 24C48 37.2548 37.2548 48 24 48C10.7452 48 0 37.2548 0 24C0 10.7452 10.7452 0 24 0C37.2548 0 48 10.7452 48 24ZM17.7109 14C16.7279 14.0038 15.7862 14.396 15.0911 15.0911C14.396 15.7862 14.0038 16.7279 14 17.7109V30.2891C14.0038 31.2721 14.396 32.2138 15.0911 32.9089C15.7862 33.604 16.7279 33.9962 17.7109 34H30.2891C31.2721 33.9962 32.2138 33.604 32.9089 32.9089C33.604 32.2138 33.9962 31.2721 34 30.2891V17.7109C33.9962 16.7279 33.604 15.7862 32.9089 15.0911C32.2138 14.396 31.2721 14.0038 30.2891 14H17.7109ZM30.2891 15.8182C31.3436 15.8182 32.1818 16.6564 32.1818 17.7109V30.2891C32.1818 31.3436 31.3436 32.1818 30.2891 32.1818H17.7109C17.4619 32.1834 17.2151 32.1355 16.9847 32.0409C16.7544 31.9464 16.5451 31.807 16.3691 31.631C16.193 31.4549 16.0536 31.2456 15.9591 31.0153C15.8645 30.7849 15.8166 30.5381 15.8182 30.2891V17.7109C15.8182 16.6564 16.6564 15.8182 17.7109 15.8182H30.2891ZM29.3273 21C29.7248 21 29.8078 21.1723 29.7248 21.4063H29.7243C29.5578 22.0504 27.9578 23.9473 27.9578 23.9473C27.8188 24.1346 27.7633 24.2284 27.9578 24.4389C28.0265 24.5198 28.1729 24.6404 28.3403 24.7785C28.5126 24.9205 28.7071 25.0808 28.8623 25.2351C29.4258 25.7696 29.8508 26.22 29.9698 26.5303C30.0777 26.8423 29.8898 27 29.5148 27H28.2023C27.8503 27 27.6733 26.8342 27.2906 26.4757C27.1286 26.3238 26.9296 26.1374 26.6648 25.9144C25.8858 25.2823 25.5523 25.2 25.3573 25.2C25.0929 25.2 25.0139 25.263 25.0139 25.5789V26.5701C25.0139 26.8423 24.9109 27 24.0764 27C22.6849 27 21.1574 26.289 20.0725 24.9776C18.445 23.0571 18 21.6051 18 21.3129C18 21.1487 18.075 21 18.45 21H19.7635C20.099 21 20.225 21.1234 20.3495 21.4299C20.9919 23.0044 22.0744 24.3806 22.5194 24.3806C22.6864 24.3806 22.7629 24.3159 22.7629 23.9589V22.3311C22.7329 21.8679 22.5406 21.6675 22.3982 21.5191C22.3103 21.4275 22.2414 21.3557 22.2414 21.2541C22.2414 21.1303 22.3669 21 22.5754 21H24.6394C24.9174 21 25.0094 21.1251 25.0094 21.4063V23.5959C25.0094 23.8303 25.1349 23.9121 25.2183 23.9121C25.3853 23.9121 25.5243 23.8303 25.8303 23.5723C26.7758 22.6826 27.4433 21.3129 27.4433 21.3129C27.5268 21.1487 27.6808 21 28.0148 21H29.3273Z" fill="#1F1E1E"/>
</svg>
