<svg width="48" height="48" viewBox="0 0 48 48" fill="none" xmlns="http://www.w3.org/2000/svg">
<path fill-rule="evenodd" clip-rule="evenodd" d="M24 48C37.2548 48 48 37.2548 48 24C48 10.7452 37.2548 0 24 0C10.7452 0 0 10.7452 0 24C0 37.2548 10.7452 48 24 48ZM20.4645 20.4645C21.4021 19.5268 22.6739 19 24 19C25.3261 19 26.5979 19.5268 27.5355 20.4645C28.4732 21.4021 29 22.6739 29 24C29 25.3261 28.4732 26.5979 27.5355 27.5355C26.5979 28.4732 25.3261 29 24 29C22.6739 29 21.4021 28.4732 20.4645 27.5355C19.5268 26.5979 19 25.3261 19 24C19 22.6739 19.5268 21.4021 20.4645 20.4645ZM21.7031 26.2958C22.3123 26.905 23.1385 27.2472 24 27.2472C24.8615 27.2472 25.6877 26.905 26.2969 26.2958C26.906 25.6866 27.2483 24.8604 27.2483 23.9989C27.2483 23.1374 26.906 22.3112 26.2969 21.702C25.6877 21.0929 24.8615 20.7506 24 20.7506C23.1385 20.7506 22.3123 21.0929 21.7031 21.702C21.094 22.3112 20.7517 23.1374 20.7517 23.9989C20.7517 24.8604 21.094 25.6866 21.7031 26.2958ZM29 20C29.5523 20 30 19.5523 30 19C30 18.4477 29.5523 18 29 18C28.4477 18 28 18.4477 28 19C28 19.5523 28.4477 20 29 20ZM32.3167 15.6767C32.8202 16.1793 33.2131 16.7813 33.4702 17.4442C33.7667 18.2307 33.9249 19.0624 33.9378 19.9026C34 20.9639 34 21.3076 34 24.0166C34 26.7257 33.9856 27.0639 33.9378 28.1306C33.9211 28.9601 33.7645 29.7784 33.4725 30.5547C33.215 31.2175 32.822 31.8195 32.3185 32.3222C31.815 32.8249 31.2121 33.2173 30.5482 33.4744C29.771 33.7651 28.9501 33.9222 28.1204 33.939C27.0598 34 26.7121 34 24 34C21.2879 34 20.9491 33.9856 19.8796 33.939C19.0482 33.9117 18.2275 33.743 17.4529 33.44C16.7888 33.1834 16.1857 32.7913 15.682 32.2887C15.1782 31.7862 14.7851 31.1843 14.5275 30.5214C14.2355 29.7441 14.0789 28.9257 14.0622 28.0963C14 27.035 14 26.6902 14 23.9823C14 21.2732 14.0144 20.935 14.0622 19.8683C14.0784 19.0397 14.2358 18.22 14.5275 17.4442C14.7843 16.7811 15.1771 16.179 15.6807 15.6763C16.1843 15.1737 16.7876 14.7818 17.4518 14.5256C18.2278 14.2335 19.0482 14.076 19.8774 14.0599C20.938 14 21.2857 14 23.9978 14C26.7099 14 27.0486 14.0133 28.1182 14.0599C28.948 14.0769 29.7689 14.2344 30.546 14.5256C31.21 14.7821 31.8131 15.1741 32.3167 15.6767ZM31.7721 29.886C31.9935 29.2864 32.1103 28.6533 32.1175 28.0142V28.0153H32.1297C32.1775 26.9552 32.1775 26.6647 32.1775 23.9634C32.1775 21.261 32.1653 20.965 32.1175 19.9104C32.1072 19.2785 31.9904 18.6529 31.7721 18.0597C31.6052 17.6284 31.3498 17.2367 31.0224 16.9098C30.695 16.5828 30.3027 16.3279 29.8707 16.1612C29.2769 15.9406 28.6495 15.824 28.016 15.8164C26.942 15.7554 26.6644 15.7554 23.9578 15.7554C21.2512 15.7554 20.9547 15.7687 19.8985 15.8164C19.2655 15.8252 18.6386 15.9418 18.0449 16.1612C17.1686 16.4961 16.4745 17.1847 16.1357 18.0597C15.9143 18.6589 15.7975 19.2917 15.7903 19.9304C15.7315 21.0049 15.7315 21.281 15.7315 23.9834C15.7315 26.6846 15.7426 26.9818 15.7903 28.0353C15.8007 28.6672 15.9174 29.2928 16.1357 29.886C16.3032 30.318 16.5597 30.7102 16.8886 31.037C17.2175 31.3638 17.6114 31.6181 18.0449 31.7833C18.6383 32.0038 19.2654 32.1205 19.8985 32.1282C20.9736 32.1892 21.2501 32.1892 23.9578 32.1892C26.6633 32.1892 26.9609 32.177 28.016 32.1282C28.6494 32.12 29.2768 32.0034 29.8707 31.7833C30.3027 31.617 30.695 31.3623 31.0225 31.0356C31.35 30.7088 31.6053 30.3172 31.7721 29.886Z" fill="#1F1E1E"/>
</svg>
